<svg width="500" height="500" viewBox="0 0 500 500" fill="none" xmlns="http://www.w3.org/2000/svg">
<g clip-path="url(#clip0_162_3)">
<rect width="500" height="500" rx="250" fill="#333333"/>
<path d="M297.392 188C296.536 177.299 292.523 168.953 285.354 162.96C278.291 156.968 267.537 153.972 253.091 153.972C243.888 153.972 236.344 155.095 230.459 157.342C224.68 159.482 220.4 162.425 217.618 166.17C214.836 169.916 213.391 174.196 213.284 179.011C213.07 182.971 213.766 186.555 215.371 189.766C217.083 192.869 219.758 195.705 223.396 198.273C227.035 200.734 231.689 202.981 237.361 205.014C243.032 207.047 249.774 208.866 257.585 210.472L284.551 216.25C302.742 220.102 318.312 225.185 331.26 231.499C344.208 237.812 354.802 245.249 363.041 253.81C371.281 262.263 377.327 271.787 381.179 282.381C385.138 292.974 387.171 304.531 387.278 317.051C387.171 338.667 381.768 356.965 371.067 371.946C360.366 386.927 345.064 398.323 325.161 406.135C305.364 413.946 281.555 417.852 253.733 417.852C225.162 417.852 200.229 413.625 178.935 405.172C157.747 396.718 141.268 383.717 129.497 366.168C117.833 348.511 111.948 325.933 111.841 298.432H196.591C197.126 308.491 199.641 316.944 204.135 323.793C208.629 330.641 214.943 335.831 223.075 339.362C231.315 342.893 241.106 344.659 252.449 344.659C261.973 344.659 269.945 343.482 276.365 341.128C282.786 338.774 287.654 335.51 290.972 331.337C294.289 327.163 296.001 322.402 296.108 317.051C296.001 312.022 294.342 307.634 291.132 303.889C288.029 300.037 282.893 296.613 275.723 293.616C268.554 290.513 258.869 287.624 246.67 284.949L213.926 277.886C184.82 271.573 161.867 261.033 145.067 246.266C128.374 231.392 120.08 211.114 120.188 185.432C120.08 164.565 125.645 146.321 136.881 130.697C148.223 114.967 163.9 102.715 183.911 93.9403C204.028 85.1657 227.088 80.7784 253.091 80.7784C279.629 80.7784 302.582 85.2192 321.95 94.1008C341.319 102.982 356.246 115.502 366.733 131.661C377.327 147.712 382.677 166.491 382.784 188H297.392Z" fill="white"/>
</g>
<defs>
<clipPath id="clip0_162_3">
<rect width="500" height="500" rx="250" fill="white"/>
</clipPath>
</defs>
</svg>
